<?xml version="1.0" encoding="UTF-8"?>
<svg version="1.1" viewBox="0 0 1280 1280" width="1280" height="1280" xmlns="http://www.w3.org/2000/svg">
<path transform="translate(0)" d="m0 0h1280v1280h-1280z" fill="#F6F6F6"/>
<path transform="translate(765,411)" d="m0 0 4 2 17 17 14 11 20 15 23 15 17 10 21 10 1 1 1 207-1 92h-120l-1-1-1-129-7 7-11 14-20 26-14 19-15 20-10 14-13 18-9 12h-41l-12-16-13-18-11-15-16-22-12-16-7-9 2-4 9-11 11-13 8-11 8-10 9-12 10-12 9-12 14-18 12-16 10-13 12-15 11-15 9-12 14-19 7-9 12-16 13-17 12-16 8-11 13-18z" fill="#EF7328"/>
<path transform="translate(416,414)" d="m0 0h102l8 11 12 17 13 17 9 12 14 18 12 17 13 18 10 13 10 14 2 4-8 9-11 14-8 9-10 13-9 11-12 14-14 17-9 12h-2l-12-17-7-10-1 237h-119v-449z" fill="#222A4D"/>
<path transform="translate(650,564)" d="m0 0 2 4 8 10 7 10 14 19 10 13 8 11 11 14 21 28 8 10-1 4-9 12-10 13-14 19-12 16-10 14-13 18-9 12h-41l-12-16-13-18-11-15-16-22-12-16-7-9 2-4 9-11 11-13 8-11 8-10 9-12 10-12 9-12 14-18 12-16z" fill="#222B4D"/>
<path transform="translate(765,411)" d="m0 0 4 2 17 17 14 11 20 15 23 15 15 9v4l-9 10-12 16-12 14-1 2h-2l-2 4-11 14-10 13-11 13-7 9-7 8-22 28-6-5v-2l-3-1v-2l-4-2-12-14-8-8-9-11-14-15-9-11-6-6v-2l-4-2-1-4 13-17 13-18 9-11 8-11 10-13 12-16 8-11 13-18z" fill="#212A4D"/>
<path transform="translate(859,481)" d="m0 0 20 9 3 2 1 207-2 1-1-3-18-7-16-8-10-6-11-6-16-10-5-4-13-9-1-4 4-4 18-12 7-5 4-4 14-11 8-9 5-5 9-11 3-5v-34l-1-58-2-1z" fill="#7A7677"/>
<path transform="translate(533,819)" d="m0 0h37l3 3 7 20 3 4 10-26 2-1h38l1 1 1 8-1 1h-18l1 6-1 2h15l1 8-1 1h-15v9h18l1 1v7l-1 1h-26l-2-1v-42h-2l-1 5-9 21-7 16-1 1h-8l-14-33-3-6-2 4h-16v8h15l1 8-1 1h-15v9l9-1h9v10h-28z" fill="#303654"/>
<path transform="translate(716,819)" d="m0 0 13 1 9 22 2 5 7-17 5-10 1-1h11l1 3v42h-11l-1-22-9 20-5 2-3-1-9-21-1 21-1 1h-9z" fill="#2D3452"/>
<path transform="translate(638,819)" d="m0 0h9l8 11 2 4h2l6 8v2h2v-24l2-1h8l1 2v43h-8l-9-10-5-6v-2h-2l-4-5v-2h-2v25h-9l-1-1-1-43z" fill="#2B3352"/>
<path transform="translate(785,820)" d="m0 0h9l10 24 7 16v4h-10l-3-6v-2l-18 1-3 6-1 1h-10l3-9 9-21z" fill="#2A3251"/>
<path transform="translate(842,819)" d="m0 0h27l1 1v9h-18v8h15l1 1v7l-1 1h-15l1 9h18v8h-29z" fill="#2D3452"/>
<path transform="translate(534,820)" d="m0 0h27l-2 1v8h-16v8h15l1 8-1 1h-15v9l9-1h9v10h-28v-22z" fill="#2A3151"/>
<path transform="translate(679,819)" d="m0 0h35v10l-12 1v33l-1 1h-9l-1-1v-34h-12z" fill="#303754"/>
<path transform="translate(806,819)" d="m0 0h32l1 1v9h-11v34l-2 1h-9v-35h-12v-9z" fill="#2F3653"/>
<path transform="translate(788,836)" d="m0 0h2l3 8v3l-9 1 1-6z" fill="#F6F6F6"/>
</svg>
